<svg xmlns="http://www.w3.org/2000/svg" width="1200" height="630" viewBox="0 0 1200 630"><rect width="1200" height="630" fill="#FFFFFF"></rect><g transform="translate(80 80) scale(0.19)"><g fill="#172033"><path d="M344 850L36 850L36 795L171 787L211 787L344 795L344 850M251 850L130 850Q131 799 131 747.5Q131 696 131 644.5Q131 593 131 541L131 541L131 491Q131 440 131 388.5Q131 337 131 285.5Q131 234 130 183L130 183L251 183Q251 235 250.5 287Q250 339 250 392Q250 445 250 501L250 501L250 535Q250 589 250 642Q250 695 250.5 746.5Q251 798 251 850L251 850M594 860L594 860Q539 860 509.5 841Q480 822 468 774L468 774L436 643Q427 604 411.5 583Q396 562 373 553.5Q350 545 313 545L313 545L194 545L194 492L327 492Q380 492 414 475Q448 458 464 428Q480 398 480 360L480 360Q480 299 444 269Q408 239 332 239L332 239L204 239L204 183L346 183Q469 183 535.5 228Q602 273 602 354L602 354Q602 400 575.5 435Q549 470 500 491Q451 512 385 515L385 515L385 521Q424 522 452 529.5Q480 537 500 552Q520 567 533.5 591.5Q547 616 557 652L557 652L604 821L556 786L682 797L682 850Q670 853 656 855Q642 857 627 858.5Q612 860 594 860M163 246L36 238L36 183L176 183L176 246L163 246M990 863L990 863Q924 863 867 833.5Q810 804 776 746Q742 688 742 605L742 605Q742 522 776.5 463.5Q811 405 867.5 374.5Q924 344 990 344L990 344Q1055 344 1112 374Q1169 404 1203.5 461.5Q1238 519 1238 602L1238 602Q1238 685 1203.5 743.5Q1169 802 1112.5 832.5Q1056 863 990 863M990 808L990 808Q1032 808 1061 786Q1090 764 1106 719Q1122 674 1122 605L1122 605Q1122 536 1106 490Q1090 444 1061 421.5Q1032 399 990 399L990 399Q948 399 918.5 421.5Q889 444 874 489Q859 534 859 603L859 603Q859 673 874 718.5Q889 764 918.5 786Q948 808 990 808M1463 865L1463 865Q1406 865 1366 831Q1326 797 1326 734L1326 734Q1326 697 1342 668.5Q1358 640 1395 617.5Q1432 595 1496 577L1496 577Q1524 569 1552 562Q1580 555 1607.5 547Q1635 539 1663 532L1663 532L1663 574Q1628 584 1593.5 595Q1559 606 1524 617L1524 617Q1487 628 1467 643Q1447 658 1439.5 675.5Q1432 693 1432 713L1432 713Q1432 750 1454 770Q1476 790 1513 790L1513 790Q1536 790 1555 781.5Q1574 773 1595.5 757Q1617 741 1646 716L1646 716L1652 772L1615 772Q1596 798 1575.5 819Q1555 840 1528.5 852.5Q1502 865 1463 865M1727 862L1727 862Q1681 862 1654 834Q1627 806 1624 753L1624 753L1621 751L1621 515Q1621 470 1610.5 444Q1600 418 1577.5 407Q1555 396 1520 396L1520 396Q1496 396 1473 400.5Q1450 405 1426 415L1426 415L1469 373L1456 460Q1452 495 1436 511Q1420 527 1395 527L1395 527Q1370 527 1356.5 514Q1343 501 1339 482L1339 482Q1351 419 1407 381.5Q1463 344 1551 344L1551 344Q1607 344 1646.5 361.5Q1686 379 1707 417.5Q1728 456 1728 520L1728 520L1728 742Q1728 769 1738.5 781Q1749 793 1767 793L1767 793Q1779 793 1788.5 789Q1798 785 1806 779L1806 779L1823 814Q1807 836 1783.5 849Q1760 862 1727 862M2078 863L2078 863Q2019 863 1972.5 832.5Q1926 802 1899.5 744.5Q1873 687 1873 607L1873 607Q1873 525 1901 466Q1929 407 1977 375.5Q2025 344 2084 344L2084 344Q2120 344 2146 355Q2172 366 2192 386.5Q2212 407 2230 435L2230 435L2267 435L2262 503Q2223 458 2190.5 436Q2158 414 2119 414L2119 414Q2082 414 2052 434Q2022 454 2004.5 496Q1987 538 1987 604L1987 604Q1987 668 2004 709Q2021 750 2051 770Q2081 790 2119 790L2119 790Q2162 790 2194.5 766.5Q2227 743 2262 696L2262 696L2267 764L2230 764Q2214 793 2194 815.5Q2174 838 2146 850.5Q2118 863 2078 863M2417 850L2245 857L2235 753L2232 751L2232 454L2237 447L2234 212L2150 197L2150 154L2313 118L2342 122L2340 252L2340 788L2417 802L2417 850M2653 858L2484 850L2484 802L2559 788Q2559 763 2559 736.5Q2559 710 2559.5 684Q2560 658 2560 635L2560 635L2560 212L2477 197L2477 154L2639 118L2668 122L2666 252L2663 447L2667 453L2667 757L2665 758L2653 858M2819 863L2819 863Q2782 863 2754.5 851.5Q2727 840 2705.5 817Q2684 794 2665 761L2665 761L2628 761L2633 695Q2671 744 2706.5 768.5Q2742 793 2784 793L2784 793Q2821 793 2850 773Q2879 753 2896 711.5Q2913 670 2913 606L2913 606Q2913 510 2877.5 463.5Q2842 417 2787 417L2787 417Q2760 417 2735.5 428Q2711 439 2686 460.5Q2661 482 2632 514L2632 514L2627 447L2667 447Q2687 414 2710 391.5Q2733 369 2761.5 356.5Q2790 344 2828 344L2828 344Q2884 344 2929.5 373.5Q2975 403 3001.5 460.5Q3028 518 3028 601L3028 601Q3028 682 3000.5 741Q2973 800 2925.5 831.5Q2878 863 2819 863" fill="#172033"/><path d="M3363 863L3363 863Q3297 863 3240 833.5Q3183 804 3149 746Q3115 688 3115 605L3115 605Q3115 522 3149.5 463.5Q3184 405 3240.5 374.5Q3297 344 3363 344L3363 344Q3428 344 3485 374Q3542 404 3576.5 461.5Q3611 519 3611 602L3611 602Q3611 685 3576.5 743.5Q3542 802 3485.5 832.5Q3429 863 3363 863M3363 808L3363 808Q3405 808 3434 786Q3463 764 3479 719Q3495 674 3495 605L3495 605Q3495 536 3479 490Q3463 444 3434 421.5Q3405 399 3363 399L3363 399Q3321 399 3291.5 421.5Q3262 444 3247 489Q3232 534 3232 603L3232 603Q3232 673 3247 718.5Q3262 764 3291.5 786Q3321 808 3363 808" fill="#172033"/><path d="M3947 863L3947 863Q3881 863 3824 833.5Q3767 804 3733 746Q3699 688 3699 605L3699 605Q3699 522 3733.5 463.5Q3768 405 3824.5 374.5Q3881 344 3947 344L3947 344Q4012 344 4069 374Q4126 404 4160.5 461.5Q4195 519 4195 602L4195 602Q4195 685 4160.5 743.5Q4126 802 4069.5 832.5Q4013 863 3947 863M3947 808L3947 808Q3989 808 4018 786Q4047 764 4063 719Q4079 674 4079 605L4079 605Q4079 536 4063 490Q4047 444 4018 421.5Q3989 399 3947 399L3947 399Q3905 399 3875.5 421.5Q3846 444 3831 489Q3816 534 3816 603L3816 603Q3816 673 3831 718.5Q3846 764 3875.5 786Q3905 808 3947 808" fill="#172033"/><path d="M4537 850L4274 850L4274 799L4385 789L4425 789L4537 799L4537 850M4461 850L4350 850Q4351 825 4351 798Q4351 771 4351.5 743.5Q4352 716 4352 688.5Q4352 661 4352 635L4352 635L4352 212L4269 197L4269 154L4432 118L4461 122L4459 252L4459 634Q4459 661 4459 688Q4459 715 4459.5 743Q4460 771 4460 798Q4460 825 4461 850L4461 850M4781 358L4410 706L4410 627L4444 627L4572 487L4701 358L4781 358M4834 850L4673 850L4516 578L4588 507L4764 791L4834 801L4834 850M4667 422L4558 406L4558 357L4812 357L4812 406L4691 419L4667 422" fill="#172033"/></g><path d="M3322.7 778.0 Q3322.7 635.0 3410.1 515.2 M3322.7 665.0 L3276.7 581.1" fill="none" stroke="#2F55D4" stroke-width="46" stroke-linecap="round" stroke-linejoin="round"></path><circle cx="3410.1" cy="515.2" r="40" fill="#2F55D4"></circle></g><path d="M94.48 322L92.03 322L92.03 306.74L86.26 306.74L86.26 304.63L100.25 304.63L100.25 306.74L94.48 306.74L94.48 322M103.03 322L100.85 322L100.85 309.1L102.43 309.1L103.13 311.5Q103.81 310.33 104.97 309.61Q106.12 308.9 107.74 308.9L107.74 308.9L107.74 311.16Q107.55 311.16 107.36 311.16Q107.16 311.16 106.98 311.18L106.98 311.18Q104.77 311.37 103.9 312.72Q103.03 314.07 103.03 316.46L103.03 316.46L103.03 322M115.17 322.31L115.17 322.31Q113.14 322.31 111.74 321.42Q110.34 320.52 109.6 319Q108.85 317.48 108.85 315.58L108.85 315.58Q108.85 313.52 109.69 312.03Q110.52 310.53 111.94 309.71Q113.35 308.9 115.12 308.9L115.12 308.9Q116.65 308.9 117.82 309.51Q118.99 310.12 119.76 311.15Q120.53 312.17 120.88 313.47Q121.23 314.77 121.13 316.15L121.13 316.15L111.19 316.15Q111.25 317.76 111.91 318.7Q112.57 319.63 113.48 320.01Q114.39 320.39 115.17 320.39L115.17 320.39Q116.26 320.39 117.01 320.04Q117.75 319.69 118.19 319.11L118.19 319.11L120.29 319.74Q119.59 320.86 118.29 321.58Q116.99 322.31 115.17 322.31M111.22 314.41L111.22 314.41L118.81 314.41Q118.81 313.5 118.36 312.67Q117.9 311.83 117.08 311.3Q116.26 310.77 115.12 310.77L115.12 310.77Q114.16 310.77 113.3 311.13Q112.44 311.5 111.88 312.3Q111.32 313.11 111.22 314.41M127.31 322.31L127.31 322.31Q126.09 322.31 125.08 321.87Q124.06 321.43 123.47 320.6Q122.87 319.76 122.87 318.59L122.87 318.59Q122.87 317.06 123.95 316.18Q125.03 315.29 126.99 314.81Q128.95 314.33 131.58 314.04L131.58 314.04Q131.63 312.41 130.93 311.52Q130.23 310.64 128.67 310.64L128.67 310.64Q127.5 310.64 126.76 311.17Q126.01 311.7 125.81 312.64L125.81 312.64L123.7 312.02Q124.22 310.53 125.56 309.71Q126.9 308.9 128.64 308.9L128.64 308.9Q131.32 308.9 132.55 310.16Q133.79 311.42 133.79 314.12L133.79 314.12L133.79 317.14Q133.79 318.75 133.92 319.92Q134.05 321.09 134.23 322L134.23 322L132.23 322L131.71 320.23Q131.14 321.19 130.07 321.75Q129 322.31 127.31 322.31M127.78 320.57L127.78 320.57Q128.8 320.57 129.71 320.21Q130.62 319.84 131.19 318.97Q131.76 318.1 131.76 316.59L131.76 316.59L131.76 315.79Q129.78 315.99 128.33 316.29Q126.87 316.59 126.08 317.13Q125.29 317.66 125.29 318.54L125.29 318.54Q125.29 319.45 125.95 320.01Q126.61 320.57 127.78 320.57M142.94 322L141.3 322Q140.08 322 139.42 321.75Q138.75 321.51 138.51 320.8Q138.26 320.1 138.26 318.78L138.26 318.78L138.26 310.85L136.08 310.85L136.08 309.1L138.26 309.1L138.26 305.85L140.44 305.85L140.44 309.1L142.94 309.1L142.94 310.85L140.44 310.85L140.44 318.41Q140.44 319.4 140.64 319.74Q140.83 320.08 141.77 320.08L141.77 320.08L142.94 320.08L142.94 322M147.98 322L145.8 322L145.8 309.1L147.41 309.1L147.98 311.05Q148.53 310.14 149.48 309.52Q150.43 308.9 151.86 308.9L151.86 308.9Q153.34 308.9 154.25 309.49Q155.16 310.09 155.58 311.16L155.58 311.16Q156.36 309.96 157.46 309.43Q158.57 308.9 159.92 308.9L159.92 308.9Q162.15 308.9 163.12 310.26Q164.08 311.63 164.08 313.84L164.08 313.84L164.08 322L161.89 322L161.89 314.49Q161.89 313.5 161.7 312.65Q161.5 311.81 160.92 311.29Q160.33 310.77 159.14 310.77L159.14 310.77Q157.73 310.77 156.89 311.85Q156.04 312.93 156.04 315.01L156.04 315.01L156.04 322L153.86 322L153.86 314.49Q153.86 313.5 153.67 312.65Q153.47 311.81 152.89 311.29Q152.3 310.77 151.1 310.77L151.1 310.77Q149.7 310.77 148.84 311.85Q147.98 312.93 147.98 315.01L147.98 315.01L147.98 322M172.87 322.31L172.87 322.31Q170.84 322.31 169.43 321.42Q168.03 320.52 167.29 319Q166.55 317.48 166.55 315.58L166.55 315.58Q166.55 313.52 167.38 312.03Q168.21 310.53 169.63 309.71Q171.05 308.9 172.81 308.9L172.81 308.9Q174.35 308.9 175.52 309.51Q176.69 310.12 177.46 311.15Q178.22 312.17 178.57 313.47Q178.92 314.77 178.82 316.15L178.82 316.15L168.89 316.15Q168.94 317.76 169.6 318.7Q170.27 319.63 171.18 320.01Q172.09 320.39 172.87 320.39L172.87 320.39Q173.96 320.39 174.7 320.04Q175.44 319.69 175.88 319.11L175.88 319.11L177.99 319.74Q177.29 320.86 175.99 321.58Q174.69 322.31 172.87 322.31M168.91 314.41L168.91 314.41L176.51 314.41Q176.51 313.5 176.05 312.67Q175.6 311.83 174.78 311.3Q173.96 310.77 172.81 310.77L172.81 310.77Q171.85 310.77 170.99 311.13Q170.14 311.5 169.58 312.3Q169.02 313.11 168.91 314.41M183.58 322L181.39 322L181.39 309.1L183.01 309.1L183.58 311.05Q184.12 310.14 185.11 309.52Q186.1 308.9 187.74 308.9L187.74 308.9Q190.08 308.9 191.04 310.26Q192 311.63 192 313.84L192 313.84L192 322L189.82 322L189.82 314.49Q189.82 313.5 189.64 312.65Q189.45 311.81 188.84 311.29Q188.23 310.77 186.98 310.77L186.98 310.77Q185.4 310.77 184.49 311.85Q183.58 312.93 183.58 315.01L183.58 315.01L183.58 322M200.82 322L199.18 322Q197.96 322 197.29 321.75Q196.63 321.51 196.38 320.8Q196.14 320.1 196.14 318.78L196.14 318.78L196.14 310.85L193.95 310.85L193.95 309.1L196.14 309.1L196.14 305.85L198.32 305.85L198.32 309.1L200.82 309.1L200.82 310.85L198.32 310.85L198.32 318.41Q198.32 319.4 198.52 319.74Q198.71 320.08 199.65 320.08L199.65 320.08L200.82 320.08L200.82 322M213.14 322L210.96 322L210.96 309.1L212.57 309.1L213.14 311.05Q213.69 310.14 214.64 309.52Q215.58 308.9 217.01 308.9L217.01 308.9Q218.5 308.9 219.41 309.49Q220.32 310.09 220.73 311.16L220.73 311.16Q221.51 309.96 222.62 309.43Q223.72 308.9 225.07 308.9L225.07 308.9Q227.31 308.9 228.27 310.26Q229.23 311.63 229.23 313.84L229.23 313.84L229.23 322L227.05 322L227.05 314.49Q227.05 313.5 226.86 312.65Q226.66 311.81 226.08 311.29Q225.49 310.77 224.29 310.77L224.29 310.77Q222.89 310.77 222.05 311.85Q221.2 312.93 221.2 315.01L221.2 315.01L221.2 322L219.02 322L219.02 314.49Q219.02 313.5 218.82 312.65Q218.63 311.81 218.04 311.29Q217.46 310.77 216.26 310.77L216.26 310.77Q214.86 310.77 214 311.85Q213.14 312.93 213.14 315.01L213.14 315.01L213.14 322M236.44 322.31L236.44 322.31Q235.21 322.31 234.2 321.87Q233.19 321.43 232.59 320.6Q231.99 319.76 231.99 318.59L231.99 318.59Q231.99 317.06 233.07 316.18Q234.15 315.29 236.11 314.81Q238.07 314.33 240.7 314.04L240.7 314.04Q240.75 312.41 240.05 311.52Q239.35 310.64 237.79 310.64L237.79 310.64Q236.62 310.64 235.88 311.17Q235.14 311.7 234.93 312.64L234.93 312.64L232.82 312.02Q233.34 310.53 234.68 309.71Q236.02 308.9 237.76 308.9L237.76 308.9Q240.44 308.9 241.68 310.16Q242.91 311.42 242.91 314.12L242.91 314.12L242.91 317.14Q242.91 318.75 243.04 319.92Q243.17 321.09 243.35 322L243.35 322L241.35 322L240.83 320.23Q240.26 321.19 239.19 321.75Q238.13 322.31 236.44 322.31M236.9 320.57L236.9 320.57Q237.92 320.57 238.83 320.21Q239.74 319.84 240.31 318.97Q240.88 318.1 240.88 316.59L240.88 316.59L240.88 315.79Q238.91 315.99 237.45 316.29Q235.99 316.59 235.2 317.13Q234.41 317.66 234.41 318.54L234.41 318.54Q234.41 319.45 235.07 320.01Q235.73 320.57 236.9 320.57M248.68 326.19L246.5 326.19L246.5 309.1L248.08 309.1L248.68 311.13Q249.28 310.12 250.32 309.51Q251.36 308.9 252.87 308.9L252.87 308.9Q254.35 308.9 255.61 309.69Q256.87 310.48 257.64 311.98Q258.41 313.47 258.41 315.6L258.41 315.6Q258.41 317.71 257.64 319.22Q256.87 320.73 255.61 321.52Q254.35 322.31 252.87 322.31L252.87 322.31Q251.36 322.31 250.32 321.7Q249.28 321.09 248.68 320.05L248.68 320.05L248.68 326.19M252.3 320.44L252.3 320.44Q253.96 320.44 254.96 319.17Q255.96 317.89 255.96 315.6L255.96 315.6Q255.96 313.29 254.96 312.03Q253.96 310.77 252.3 310.77L252.3 310.77Q250.63 310.77 249.63 312.03Q248.63 313.29 248.63 315.6L248.63 315.6Q248.63 317.89 249.63 319.17Q250.63 320.44 252.3 320.44M265.61 322.31L265.61 322.31Q264.49 322.31 263.41 321.96Q262.33 321.61 261.49 320.9Q260.64 320.18 260.2 319.09L260.2 319.09L262.31 318.31Q262.59 319.45 263.57 319.96Q264.54 320.47 265.61 320.47L265.61 320.47Q266.39 320.47 267.08 320.23Q267.77 320 268.21 319.56Q268.65 319.11 268.65 318.54L268.65 318.54Q268.65 317.48 267.81 317.03Q266.96 316.59 265.79 316.36L265.79 316.36L264 315.99Q263.06 315.79 262.25 315.41Q261.45 315.03 260.95 314.33Q260.46 313.63 260.46 312.46L260.46 312.46Q260.46 311.29 261.19 310.5Q261.92 309.7 263.05 309.29Q264.18 308.87 265.43 308.87L265.43 308.87Q266.96 308.87 268.33 309.51Q269.69 310.14 270.26 311.5L270.26 311.5L268.21 312.25Q267.87 311.47 267.03 311.09Q266.18 310.72 265.27 310.72L265.27 310.72Q264.28 310.72 263.48 311.16Q262.67 311.6 262.67 312.43L262.67 312.43Q262.67 313.26 263.36 313.64Q264.05 314.02 265.06 314.23L265.06 314.23L266.75 314.56Q267.79 314.77 268.73 315.16Q269.66 315.55 270.26 316.32Q270.86 317.09 270.86 318.46L270.86 318.46Q270.86 319.69 270.11 320.54Q269.35 321.4 268.16 321.86Q266.96 322.31 265.61 322.31M283.68 322L281.49 322L281.49 310.85L279.31 310.85L279.31 309.1L281.49 309.1L281.49 307.18Q281.49 305.85 281.75 305.07Q282.01 304.29 282.77 303.97Q283.52 303.64 284.95 303.64L284.95 303.64L286.36 303.64L286.36 305.49L285 305.49Q284.17 305.49 283.93 305.83Q283.68 306.17 283.68 307.15L283.68 307.15L283.68 309.1L286.36 309.1L286.36 310.85L283.68 310.85L283.68 322M293.64 322.31L293.64 322.31Q292.52 322.31 291.43 321.92Q290.33 321.53 289.44 320.71Q288.54 319.89 287.99 318.62Q287.45 317.35 287.45 315.6L287.45 315.6Q287.45 313.86 287.99 312.59Q288.54 311.31 289.44 310.5Q290.33 309.68 291.43 309.29Q292.52 308.9 293.64 308.9L293.64 308.9Q294.75 308.9 295.86 309.29Q296.96 309.68 297.86 310.5Q298.76 311.31 299.29 312.59Q299.82 313.86 299.82 315.6L299.82 315.6Q299.82 317.35 299.29 318.62Q298.76 319.89 297.86 320.71Q296.96 321.53 295.86 321.92Q294.75 322.31 293.64 322.31M293.64 320.39L293.64 320.39Q294.57 320.39 295.46 319.88Q296.34 319.37 296.91 318.32Q297.48 317.27 297.48 315.6L297.48 315.6Q297.48 313.94 296.91 312.89Q296.34 311.83 295.46 311.33Q294.57 310.82 293.64 310.82L293.64 310.82Q292.73 310.82 291.83 311.33Q290.93 311.83 290.36 312.89Q289.79 313.94 289.79 315.6L289.79 315.6Q289.79 317.27 290.36 318.32Q290.93 319.37 291.83 319.88Q292.73 320.39 293.64 320.39M304.82 322L302.63 322L302.63 309.1L304.22 309.1L304.92 311.5Q305.6 310.33 306.75 309.61Q307.91 308.9 309.52 308.9L309.52 308.9L309.52 311.16Q309.34 311.16 309.15 311.16Q308.95 311.16 308.77 311.18L308.77 311.18Q306.56 311.37 305.69 312.72Q304.82 314.07 304.82 316.46L304.82 316.46L304.82 322M323.93 322.31L323.93 322.31Q322.08 322.31 320.73 321.44Q319.38 320.57 318.65 319.06Q317.92 317.55 317.92 315.6L317.92 315.6Q317.92 313.68 318.69 312.16Q319.45 310.64 320.86 309.77Q322.26 308.9 324.16 308.9L324.16 308.9Q325.9 308.9 327.15 309.75Q328.4 310.61 329.02 311.81L329.02 311.81L327.02 312.54Q326.6 311.76 325.8 311.29Q324.99 310.82 324 310.82L324 310.82Q323.04 310.82 322.18 311.33Q321.33 311.83 320.81 312.89Q320.29 313.94 320.29 315.58L320.29 315.58Q320.29 317.19 320.82 318.27Q321.35 319.35 322.2 319.87Q323.04 320.39 324 320.39L324 320.39Q325.07 320.39 325.86 319.91Q326.66 319.43 327.07 318.7L327.07 318.7L329.07 319.43Q328.35 320.67 326.99 321.49Q325.64 322.31 323.93 322.31M335.37 322.31L335.37 322.31Q334.14 322.31 333.13 321.87Q332.12 321.43 331.52 320.6Q330.92 319.76 330.92 318.59L330.92 318.59Q330.92 317.06 332 316.18Q333.08 315.29 335.04 314.81Q337 314.33 339.63 314.04L339.63 314.04Q339.68 312.41 338.98 311.52Q338.28 310.64 336.72 310.64L336.72 310.64Q335.55 310.64 334.81 311.17Q334.07 311.7 333.86 312.64L333.86 312.64L331.75 312.02Q332.27 310.53 333.61 309.71Q334.95 308.9 336.69 308.9L336.69 308.9Q339.37 308.9 340.6 310.16Q341.84 311.42 341.84 314.12L341.84 314.12L341.84 317.14Q341.84 318.75 341.97 319.92Q342.1 321.09 342.28 322L342.28 322L340.28 322L339.76 320.23Q339.19 321.19 338.12 321.75Q337.06 322.31 335.37 322.31M335.83 320.57L335.83 320.57Q336.85 320.57 337.76 320.21Q338.67 319.84 339.24 318.97Q339.81 318.1 339.81 316.59L339.81 316.59L339.81 315.79Q337.84 315.99 336.38 316.29Q334.92 316.59 334.13 317.13Q333.34 317.66 333.34 318.54L333.34 318.54Q333.34 319.45 334 320.01Q334.66 320.57 335.83 320.57M347.61 322L345.43 322L345.43 309.1L347.04 309.1L347.61 311.05Q348.16 310.14 349.15 309.52Q350.13 308.9 351.77 308.9L351.77 308.9Q354.11 308.9 355.07 310.26Q356.04 311.63 356.04 313.84L356.04 313.84L356.04 322L353.85 322L353.85 314.49Q353.85 313.5 353.67 312.65Q353.49 311.81 352.88 311.29Q352.27 310.77 351.02 310.77L351.02 310.77Q349.43 310.77 348.52 311.85Q347.61 312.93 347.61 315.01L347.61 315.01L347.61 322M364.51 322.31L364.51 322.31Q362.67 322.31 361.31 321.44Q359.96 320.57 359.23 319.06Q358.51 317.55 358.51 315.6L358.51 315.6Q358.51 313.68 359.27 312.16Q360.04 310.64 361.44 309.77Q362.85 308.9 364.75 308.9L364.75 308.9Q366.49 308.9 367.74 309.75Q368.98 310.61 369.61 311.81L369.61 311.81L367.61 312.54Q367.19 311.76 366.38 311.29Q365.58 310.82 364.59 310.82L364.59 310.82Q363.63 310.82 362.77 311.33Q361.91 311.83 361.39 312.89Q360.87 313.94 360.87 315.58L360.87 315.58Q360.87 317.19 361.41 318.27Q361.94 319.35 362.78 319.87Q363.63 320.39 364.59 320.39L364.59 320.39Q365.66 320.39 366.45 319.91Q367.24 319.43 367.66 318.7L367.66 318.7L369.66 319.43Q368.93 320.67 367.58 321.49Q366.23 322.31 364.51 322.31M377.82 322.31L377.82 322.31Q375.8 322.31 374.39 321.42Q372.99 320.52 372.25 319Q371.51 317.48 371.51 315.58L371.51 315.58Q371.51 313.52 372.34 312.03Q373.17 310.53 374.59 309.71Q376 308.9 377.77 308.9L377.77 308.9Q379.31 308.9 380.48 309.51Q381.65 310.12 382.41 311.15Q383.18 312.17 383.53 313.47Q383.88 314.77 383.78 316.15L383.78 316.15L373.85 316.15Q373.9 317.76 374.56 318.7Q375.22 319.63 376.13 320.01Q377.04 320.39 377.82 320.39L377.82 320.39Q378.92 320.39 379.66 320.04Q380.4 319.69 380.84 319.11L380.84 319.11L382.95 319.74Q382.24 320.86 380.94 321.58Q379.64 322.31 377.82 322.31M373.87 314.41L373.87 314.41L381.46 314.41Q381.46 313.5 381.01 312.67Q380.55 311.83 379.73 311.3Q378.92 310.77 377.77 310.77L377.77 310.77Q376.81 310.77 375.95 311.13Q375.09 311.5 374.54 312.3Q373.98 313.11 373.87 314.41M388.54 322L386.35 322L386.35 309.1L387.94 309.1L388.64 311.5Q389.32 310.33 390.47 309.61Q391.63 308.9 393.24 308.9L393.24 308.9L393.24 311.16Q393.06 311.16 392.87 311.16Q392.67 311.16 392.49 311.18L392.49 311.18Q390.28 311.37 389.41 312.72Q388.54 314.07 388.54 316.46L388.54 316.46L388.54 322M407.65 322.31L407.65 322.31Q405.8 322.31 404.45 321.44Q403.1 320.57 402.37 319.06Q401.64 317.55 401.64 315.6L401.64 315.6Q401.64 313.68 402.41 312.16Q403.17 310.64 404.58 309.77Q405.98 308.9 407.88 308.9L407.88 308.9Q409.62 308.9 410.87 309.75Q412.12 310.61 412.74 311.81L412.74 311.81L410.74 312.54Q410.32 311.76 409.52 311.29Q408.71 310.82 407.72 310.82L407.72 310.82Q406.76 310.82 405.9 311.33Q405.05 311.83 404.53 312.89Q404.01 313.94 404.01 315.58L404.01 315.58Q404.01 317.19 404.54 318.27Q405.07 319.35 405.92 319.87Q406.76 320.39 407.72 320.39L407.72 320.39Q408.79 320.39 409.58 319.91Q410.38 319.43 410.79 318.7L410.79 318.7L412.79 319.43Q412.07 320.67 410.71 321.49Q409.36 322.31 407.65 322.31M419.09 322.31L419.09 322.31Q417.86 322.31 416.85 321.87Q415.84 321.43 415.24 320.6Q414.64 319.76 414.64 318.59L414.64 318.59Q414.64 317.06 415.72 316.18Q416.8 315.29 418.76 314.81Q420.72 314.33 423.35 314.04L423.35 314.04Q423.4 312.41 422.7 311.52Q422 310.64 420.44 310.64L420.44 310.64Q419.27 310.64 418.53 311.17Q417.79 311.7 417.58 312.64L417.58 312.64L415.47 312.02Q415.99 310.53 417.33 309.71Q418.67 308.9 420.41 308.9L420.41 308.9Q423.09 308.9 424.32 310.16Q425.56 311.42 425.56 314.12L425.56 314.12L425.56 317.14Q425.56 318.75 425.69 319.92Q425.82 321.09 426 322L426 322L424 322L423.48 320.23Q422.91 321.19 421.84 321.75Q420.78 322.31 419.09 322.31M419.55 320.57L419.55 320.57Q420.57 320.57 421.48 320.21Q422.39 319.84 422.96 318.97Q423.53 318.1 423.53 316.59L423.53 316.59L423.53 315.79Q421.56 315.99 420.1 316.29Q418.64 316.59 417.85 317.13Q417.06 317.66 417.06 318.54L417.06 318.54Q417.06 319.45 417.72 320.01Q418.38 320.57 419.55 320.57M431.33 322L429.15 322L429.15 309.1L430.73 309.1L431.44 311.5Q432.11 310.33 433.27 309.61Q434.43 308.9 436.04 308.9L436.04 308.9L436.04 311.16Q435.86 311.16 435.66 311.16Q435.47 311.16 435.28 311.18L435.28 311.18Q433.07 311.37 432.2 312.72Q431.33 314.07 431.33 316.46L431.33 316.46L431.33 322M443.47 322.31L443.47 322.31Q441.45 322.31 440.04 321.42Q438.64 320.52 437.9 319Q437.16 317.48 437.16 315.58L437.16 315.58Q437.16 313.52 437.99 312.03Q438.82 310.53 440.24 309.71Q441.65 308.9 443.42 308.9L443.42 308.9Q444.96 308.9 446.13 309.51Q447.3 310.12 448.06 311.15Q448.83 312.17 449.18 313.47Q449.53 314.77 449.43 316.15L449.43 316.15L439.5 316.15Q439.55 317.76 440.21 318.7Q440.87 319.63 441.78 320.01Q442.69 320.39 443.47 320.39L443.47 320.39Q444.57 320.39 445.31 320.04Q446.05 319.69 446.49 319.11L446.49 319.11L448.6 319.74Q447.89 320.86 446.59 321.58Q445.29 322.31 443.47 322.31M439.52 314.41L439.52 314.41L447.11 314.41Q447.11 313.5 446.66 312.67Q446.2 311.83 445.38 311.3Q444.57 310.77 443.42 310.77L443.42 310.77Q442.46 310.77 441.6 311.13Q440.74 311.5 440.18 312.3Q439.63 313.11 439.52 314.41M452.83 322.31L452.83 322.31Q452.16 322.31 451.66 321.82Q451.17 321.32 451.17 320.65L451.17 320.65Q451.17 319.95 451.66 319.45Q452.16 318.96 452.83 318.96L452.83 318.96Q453.54 318.96 454.03 319.45Q454.52 319.95 454.52 320.65L454.52 320.65Q454.52 321.32 454.03 321.82Q453.54 322.31 452.83 322.31" fill="#172033"/><g id="map-crop-slot"><rect x="80" y="400" width="1200" height="230" fill="none"></rect></g></svg>